<svg width="20" height="19" viewBox="0 0 20 19" fill="none" xmlns="http://www.w3.org/2000/svg">
<path d="M9.99996 7.99998C8.89996 7.99998 7.99996 8.89998 7.99996 9.99998C7.99996 11.1 8.89996 12 9.99996 12C11.1 12 12 11.1 12 9.99998C12 8.89998 11.1 7.99998 9.99996 7.99998ZM16 9.99998C16 6.43998 12.89 3.59998 9.24996 4.04998C6.62996 4.36998 4.46996 6.45998 4.06996 9.06998C3.73996 11.22 4.55996 13.18 5.99996 14.47C6.47996 14.9 7.22996 14.8 7.55996 14.24L7.56996 14.23C7.80996 13.81 7.70996 13.3 7.34996 12.97C6.31996 12.04 5.75996 10.6 6.12996 9.02998C6.45996 7.60998 7.60996 6.45998 9.02996 6.11998C11.65 5.48998 14 7.46998 14 9.99998C14 11.18 13.48 12.23 12.67 12.96C12.31 13.28 12.2 13.8 12.44 14.22L12.45 14.23C12.76 14.76 13.48 14.92 13.95 14.51C15.2 13.41 16 11.8 16 9.99998ZM8.82996 0.0699793C4.20996 0.589979 0.479962 4.39998 0.0499625 9.02998C-0.300038 12.73 1.36996 16.05 4.06996 18.04C4.54996 18.39 5.22996 18.24 5.52996 17.73C5.77996 17.3 5.66996 16.74 5.26996 16.44C2.98996 14.75 1.61996 11.89 2.10996 8.73998C2.64996 5.23998 5.56996 2.44998 9.08996 2.05998C13.91 1.50998 18 5.27998 18 9.99998C18 12.65 16.71 14.98 14.73 16.44C14.33 16.74 14.22 17.29 14.47 17.73C14.77 18.25 15.45 18.39 15.93 18.04C18.4 16.22 20 13.3 20 9.99998C20 4.08998 14.87 -0.620021 8.82996 0.0699793Z" fill="white"/>
</svg>
